%TF.GenerationSoftware,KiCad,Pcbnew,7.0.1*%
%TF.CreationDate,2023-08-20T21:18:48+10:00*%
%TF.ProjectId,UNO-128DA28,554e4f2d-3132-4384-9441-32382e6b6963,1.0*%
%TF.SameCoordinates,Original*%
%TF.FileFunction,Soldermask,Top*%
%TF.FilePolarity,Negative*%
%FSLAX46Y46*%
G04 Gerber Fmt 4.6, Leading zero omitted, Abs format (unit mm)*
G04 Created by KiCad (PCBNEW 7.0.1) date 2023-08-20 21:18:48*
%MOMM*%
%LPD*%
G01*
G04 APERTURE LIST*
G04 Aperture macros list*
%AMRoundRect*
0 Rectangle with rounded corners*
0 $1 Rounding radius*
0 $2 $3 $4 $5 $6 $7 $8 $9 X,Y pos of 4 corners*
0 Add a 4 corners polygon primitive as box body*
4,1,4,$2,$3,$4,$5,$6,$7,$8,$9,$2,$3,0*
0 Add four circle primitives for the rounded corners*
1,1,$1+$1,$2,$3*
1,1,$1+$1,$4,$5*
1,1,$1+$1,$6,$7*
1,1,$1+$1,$8,$9*
0 Add four rect primitives between the rounded corners*
20,1,$1+$1,$2,$3,$4,$5,0*
20,1,$1+$1,$4,$5,$6,$7,0*
20,1,$1+$1,$6,$7,$8,$9,0*
20,1,$1+$1,$8,$9,$2,$3,0*%
%AMFreePoly0*
4,1,19,0.550000,-0.750000,0.000000,-0.750000,0.000000,-0.744911,-0.071157,-0.744911,-0.207708,-0.704816,-0.327430,-0.627875,-0.420627,-0.520320,-0.479746,-0.390866,-0.500000,-0.250000,-0.500000,0.250000,-0.479746,0.390866,-0.420627,0.520320,-0.327430,0.627875,-0.207708,0.704816,-0.071157,0.744911,0.000000,0.744911,0.000000,0.750000,0.550000,0.750000,0.550000,-0.750000,0.550000,-0.750000,
$1*%
%AMFreePoly1*
4,1,19,0.000000,0.744911,0.071157,0.744911,0.207708,0.704816,0.327430,0.627875,0.420627,0.520320,0.479746,0.390866,0.500000,0.250000,0.500000,-0.250000,0.479746,-0.390866,0.420627,-0.520320,0.327430,-0.627875,0.207708,-0.704816,0.071157,-0.744911,0.000000,-0.744911,0.000000,-0.750000,-0.550000,-0.750000,-0.550000,0.750000,0.000000,0.750000,0.000000,0.744911,0.000000,0.744911,
$1*%
%AMFreePoly2*
4,1,19,0.500000,-0.750000,0.000000,-0.750000,0.000000,-0.744911,-0.071157,-0.744911,-0.207708,-0.704816,-0.327430,-0.627875,-0.420627,-0.520320,-0.479746,-0.390866,-0.500000,-0.250000,-0.500000,0.250000,-0.479746,0.390866,-0.420627,0.520320,-0.327430,0.627875,-0.207708,0.704816,-0.071157,0.744911,0.000000,0.744911,0.000000,0.750000,0.500000,0.750000,0.500000,-0.750000,0.500000,-0.750000,
$1*%
%AMFreePoly3*
4,1,19,0.000000,0.744911,0.071157,0.744911,0.207708,0.704816,0.327430,0.627875,0.420627,0.520320,0.479746,0.390866,0.500000,0.250000,0.500000,-0.250000,0.479746,-0.390866,0.420627,-0.520320,0.327430,-0.627875,0.207708,-0.704816,0.071157,-0.744911,0.000000,-0.744911,0.000000,-0.750000,-0.500000,-0.750000,-0.500000,0.750000,0.000000,0.750000,0.000000,0.744911,0.000000,0.744911,
$1*%
G04 Aperture macros list end*
%ADD10FreePoly0,0.000000*%
%ADD11R,1.000000X1.500000*%
%ADD12FreePoly1,0.000000*%
%ADD13R,1.600000X1.600000*%
%ADD14C,1.600000*%
%ADD15RoundRect,0.237500X0.300000X0.237500X-0.300000X0.237500X-0.300000X-0.237500X0.300000X-0.237500X0*%
%ADD16RoundRect,0.237500X0.250000X0.237500X-0.250000X0.237500X-0.250000X-0.237500X0.250000X-0.237500X0*%
%ADD17O,1.600000X1.600000*%
%ADD18RoundRect,0.250000X-0.750000X0.250000X-0.750000X-0.250000X0.750000X-0.250000X0.750000X0.250000X0*%
%ADD19RoundRect,0.237500X-0.237500X0.300000X-0.237500X-0.300000X0.237500X-0.300000X0.237500X0.300000X0*%
%ADD20R,1.700000X1.700000*%
%ADD21O,1.700000X1.700000*%
%ADD22R,1.400000X0.300000*%
%ADD23C,3.200000*%
%ADD24C,2.000000*%
%ADD25C,4.000000*%
%ADD26RoundRect,0.237500X-0.237500X0.250000X-0.237500X-0.250000X0.237500X-0.250000X0.237500X0.250000X0*%
%ADD27RoundRect,0.125000X-0.125000X-0.125000X0.125000X-0.125000X0.125000X0.125000X-0.125000X0.125000X0*%
%ADD28RoundRect,0.100000X-0.637500X-0.100000X0.637500X-0.100000X0.637500X0.100000X-0.637500X0.100000X0*%
%ADD29RoundRect,0.237500X-0.250000X-0.237500X0.250000X-0.237500X0.250000X0.237500X-0.250000X0.237500X0*%
%ADD30RoundRect,0.250000X0.750000X-0.250000X0.750000X0.250000X-0.750000X0.250000X-0.750000X-0.250000X0*%
%ADD31R,3.500000X3.500000*%
%ADD32RoundRect,0.750000X-0.750000X-1.000000X0.750000X-1.000000X0.750000X1.000000X-0.750000X1.000000X0*%
%ADD33RoundRect,0.875000X-0.875000X-0.875000X0.875000X-0.875000X0.875000X0.875000X-0.875000X0.875000X0*%
%ADD34RoundRect,0.250000X0.325000X0.450000X-0.325000X0.450000X-0.325000X-0.450000X0.325000X-0.450000X0*%
%ADD35R,2.000000X1.500000*%
%ADD36R,2.000000X3.800000*%
%ADD37R,2.200000X2.200000*%
%ADD38O,2.200000X2.200000*%
%ADD39RoundRect,0.250000X0.400000X1.450000X-0.400000X1.450000X-0.400000X-1.450000X0.400000X-1.450000X0*%
%ADD40RoundRect,0.250000X-0.450000X0.325000X-0.450000X-0.325000X0.450000X-0.325000X0.450000X0.325000X0*%
%ADD41R,1.700000X1.000000*%
%ADD42R,1.700000X0.600000*%
%ADD43RoundRect,0.120800X-0.830000X0.630000X-0.830000X-0.630000X0.830000X-0.630000X0.830000X0.630000X0*%
%ADD44RoundRect,0.150000X-0.587500X-0.150000X0.587500X-0.150000X0.587500X0.150000X-0.587500X0.150000X0*%
%ADD45RoundRect,0.237500X0.237500X-0.300000X0.237500X0.300000X-0.237500X0.300000X-0.237500X-0.300000X0*%
%ADD46RoundRect,0.237500X-0.300000X-0.237500X0.300000X-0.237500X0.300000X0.237500X-0.300000X0.237500X0*%
%ADD47RoundRect,0.250000X-0.475000X0.337500X-0.475000X-0.337500X0.475000X-0.337500X0.475000X0.337500X0*%
%ADD48FreePoly2,0.000000*%
%ADD49FreePoly3,0.000000*%
%ADD50RoundRect,0.150000X-0.725000X-0.150000X0.725000X-0.150000X0.725000X0.150000X-0.725000X0.150000X0*%
G04 APERTURE END LIST*
D10*
%TO.C,JP1*%
X106396000Y-121158000D03*
D11*
X107696000Y-121158000D03*
D12*
X108996000Y-121158000D03*
%TD*%
D13*
%TO.C,C10*%
X99822000Y-126935113D03*
D14*
X99822000Y-124435113D03*
%TD*%
D15*
%TO.C,C2*%
X107542500Y-105156000D03*
X105817500Y-105156000D03*
%TD*%
D16*
%TO.C,R12*%
X109532500Y-113790000D03*
X107707500Y-113790000D03*
%TD*%
D13*
%TO.C,U3*%
X110490000Y-134112000D03*
D17*
X113030000Y-134112000D03*
X115570000Y-134112000D03*
X118110000Y-134112000D03*
X120650000Y-134112000D03*
X123190000Y-134112000D03*
X125730000Y-134112000D03*
X128270000Y-134112000D03*
X130810000Y-134112000D03*
X133350000Y-134112000D03*
X135890000Y-134112000D03*
X138430000Y-134112000D03*
X140970000Y-134112000D03*
X143510000Y-134112000D03*
X143510000Y-126492000D03*
X140970000Y-126492000D03*
X138430000Y-126492000D03*
X135890000Y-126492000D03*
X133350000Y-126492000D03*
X130810000Y-126492000D03*
X128270000Y-126492000D03*
X125730000Y-126492000D03*
X123190000Y-126492000D03*
X120650000Y-126492000D03*
X118110000Y-126492000D03*
X115570000Y-126492000D03*
X113030000Y-126492000D03*
X110490000Y-126492000D03*
%TD*%
D15*
%TO.C,C14*%
X109382500Y-109820000D03*
X107657500Y-109820000D03*
%TD*%
D18*
%TO.C,J3*%
X146812000Y-125222000D03*
%TD*%
D19*
%TO.C,C11*%
X93218000Y-121819500D03*
X93218000Y-123544500D03*
%TD*%
D20*
%TO.C,J6*%
X108500000Y-116490000D03*
D21*
X105960000Y-116490000D03*
X103420000Y-116490000D03*
X100880000Y-116490000D03*
%TD*%
D18*
%TO.C,J4*%
X146812000Y-123444000D03*
%TD*%
D22*
%TO.C,U2*%
X99400000Y-105426000D03*
X99400000Y-105926000D03*
X99400000Y-106426000D03*
X99400000Y-106926000D03*
X99400000Y-107426000D03*
X103800000Y-107426000D03*
X103800000Y-106926000D03*
X103800000Y-106426000D03*
X103800000Y-105926000D03*
X103800000Y-105426000D03*
%TD*%
D23*
%TO.C,@HOLE3*%
X93941107Y-143471107D03*
%TD*%
D24*
%TO.C,SW1*%
X81840000Y-94270000D03*
X88340000Y-94270000D03*
X81840000Y-98770000D03*
X88340000Y-98770000D03*
%TD*%
D13*
%TO.C,J1*%
X89376000Y-110196000D03*
D14*
X89376000Y-107696000D03*
X87376000Y-107696000D03*
X87376000Y-110196000D03*
D25*
X84516000Y-114946000D03*
X84516000Y-102946000D03*
%TD*%
D20*
%TO.C,AD0*%
X130707607Y-143534607D03*
D21*
X133247607Y-143534607D03*
X135787607Y-143534607D03*
X138327607Y-143534607D03*
X140867607Y-143534607D03*
X143407607Y-143534607D03*
%TD*%
D26*
%TO.C,R3*%
X92710000Y-112625500D03*
X92710000Y-114450500D03*
%TD*%
D16*
%TO.C,R11*%
X114704500Y-111506000D03*
X112879500Y-111506000D03*
%TD*%
D27*
%TO.C,D8*%
X108562500Y-111610000D03*
X110762500Y-111610000D03*
%TD*%
D20*
%TO.C,J8*%
X133350000Y-123444000D03*
D21*
X133350000Y-120904000D03*
%TD*%
D19*
%TO.C,C7*%
X146050000Y-131979500D03*
X146050000Y-133704500D03*
%TD*%
D28*
%TO.C,U7*%
X100027500Y-109585000D03*
X100027500Y-110235000D03*
X100027500Y-110885000D03*
X100027500Y-111535000D03*
X100027500Y-112185000D03*
X100027500Y-112835000D03*
X100027500Y-113485000D03*
X100027500Y-114135000D03*
X105752500Y-114135000D03*
X105752500Y-113485000D03*
X105752500Y-112835000D03*
X105752500Y-112185000D03*
X105752500Y-111535000D03*
X105752500Y-110885000D03*
X105752500Y-110235000D03*
X105752500Y-109585000D03*
%TD*%
D29*
%TO.C,R4*%
X109577500Y-102108000D03*
X111402500Y-102108000D03*
%TD*%
D16*
%TO.C,R7*%
X114704500Y-114900000D03*
X112879500Y-114900000D03*
%TD*%
D15*
%TO.C,C12*%
X105510500Y-103378000D03*
X103785500Y-103378000D03*
%TD*%
%TO.C,C8*%
X130402500Y-124460000D03*
X128677500Y-124460000D03*
%TD*%
D26*
%TO.C,R6*%
X137922000Y-117705500D03*
X137922000Y-119530500D03*
%TD*%
D30*
%TO.C,J7*%
X146558000Y-127000000D03*
%TD*%
D31*
%TO.C,J2*%
X91241607Y-137692607D03*
D32*
X85241607Y-137692607D03*
D33*
X88241607Y-142392607D03*
%TD*%
D34*
%TO.C,D6*%
X141995000Y-107696000D03*
X139945000Y-107696000D03*
%TD*%
D35*
%TO.C,U5*%
X89764000Y-123712000D03*
X89764000Y-121412000D03*
D36*
X83464000Y-121412000D03*
D35*
X89764000Y-119112000D03*
%TD*%
D37*
%TO.C,D5*%
X94996000Y-129794000D03*
D38*
X94996000Y-139954000D03*
%TD*%
D23*
%TO.C,@HOLE1*%
X146011107Y-138391107D03*
%TD*%
D39*
%TO.C,F1*%
X97475000Y-118110000D03*
X93025000Y-118110000D03*
%TD*%
D23*
%TO.C,@HOLE2*%
X95211107Y-95211107D03*
%TD*%
D40*
%TO.C,D3*%
X93726000Y-102607000D03*
X93726000Y-104657000D03*
%TD*%
D10*
%TO.C,JP2*%
X117034000Y-104394000D03*
D11*
X118334000Y-104394000D03*
D12*
X119634000Y-104394000D03*
%TD*%
D29*
%TO.C,R8*%
X112879500Y-113230000D03*
X114704500Y-113230000D03*
%TD*%
D41*
%TO.C,D1*%
X95670000Y-109890000D03*
D42*
X95670000Y-108190000D03*
X92670000Y-108190000D03*
X92670000Y-110090000D03*
%TD*%
D43*
%TO.C,D4*%
X140070000Y-121110000D03*
X140070000Y-117710000D03*
%TD*%
D44*
%TO.C,Q1*%
X100154500Y-119446000D03*
X100154500Y-121346000D03*
X102029500Y-120396000D03*
%TD*%
D35*
%TO.C,U4*%
X89764000Y-131332000D03*
X89764000Y-129032000D03*
D36*
X83464000Y-129032000D03*
D35*
X89764000Y-126732000D03*
%TD*%
D29*
%TO.C,R1*%
X98401500Y-143002000D03*
X100226500Y-143002000D03*
%TD*%
D20*
%TO.C,POWER0*%
X107845000Y-143525000D03*
D21*
X110385000Y-143525000D03*
X112925000Y-143525000D03*
X115465000Y-143525000D03*
X118005000Y-143525000D03*
X120545000Y-143525000D03*
X123085000Y-143525000D03*
X125625000Y-143525000D03*
%TD*%
D45*
%TO.C,C13*%
X95758000Y-126846500D03*
X95758000Y-125121500D03*
%TD*%
D23*
%TO.C,@HOLE0*%
X146011107Y-110451107D03*
%TD*%
D46*
%TO.C,C4*%
X113183500Y-107442000D03*
X114908500Y-107442000D03*
%TD*%
D47*
%TO.C,C1*%
X95850000Y-112754500D03*
X95850000Y-114829500D03*
%TD*%
D26*
%TO.C,R5*%
X95758000Y-102719500D03*
X95758000Y-104544500D03*
%TD*%
D29*
%TO.C,R2*%
X102465500Y-143002000D03*
X104290500Y-143002000D03*
%TD*%
D34*
%TO.C,D2*%
X115325000Y-101854000D03*
X113275000Y-101854000D03*
%TD*%
D29*
%TO.C,R9*%
X135993500Y-107950000D03*
X137818500Y-107950000D03*
%TD*%
D19*
%TO.C,C3*%
X106172000Y-138837500D03*
X106172000Y-140562500D03*
%TD*%
D20*
%TO.C,IOH0*%
X121570000Y-95280000D03*
D21*
X119030000Y-95280000D03*
X116490000Y-95280000D03*
X113950000Y-95280000D03*
X111410000Y-95280000D03*
X108870000Y-95280000D03*
X106330000Y-95280000D03*
X103790000Y-95280000D03*
X101250000Y-95280000D03*
X98710000Y-95280000D03*
%TD*%
D48*
%TO.C,JP5*%
X113396000Y-104394000D03*
D49*
X114696000Y-104394000D03*
%TD*%
D50*
%TO.C,U1*%
X98771000Y-136271000D03*
X98771000Y-137541000D03*
X98771000Y-138811000D03*
X98771000Y-140081000D03*
X103921000Y-140081000D03*
X103921000Y-138811000D03*
X103921000Y-137541000D03*
X103921000Y-136271000D03*
%TD*%
D13*
%TO.C,C9*%
X99822000Y-130048000D03*
D14*
X99822000Y-132548000D03*
%TD*%
D20*
%TO.C,ICSP0*%
X143660000Y-115590000D03*
D21*
X146200000Y-115590000D03*
X143660000Y-118130000D03*
X146200000Y-118130000D03*
X143660000Y-120670000D03*
X146200000Y-120670000D03*
%TD*%
D20*
%TO.C,IOL0*%
X143407607Y-95274607D03*
D21*
X140867607Y-95274607D03*
X138327607Y-95274607D03*
X135787607Y-95274607D03*
X133247607Y-95274607D03*
X130707607Y-95274607D03*
X128167607Y-95274607D03*
X125627607Y-95274607D03*
%TD*%
D30*
%TO.C,J5*%
X122700000Y-104380000D03*
%TD*%
M02*
