%TF.GenerationSoftware,KiCad,Pcbnew,7.0.1*%
%TF.CreationDate,2023-08-20T21:18:53+10:00*%
%TF.ProjectId,UNO-128DA28,554e4f2d-3132-4384-9441-32382e6b6963,1.0*%
%TF.SameCoordinates,Original*%
%TF.FileFunction,Drillmap*%
%TF.FilePolarity,Positive*%
%FSLAX45Y45*%
G04 Gerber Fmt 4.5, Leading zero omitted, Abs format (unit mm)*
G04 Created by KiCad (PCBNEW 7.0.1) date 2023-08-20 21:18:53*
%MOMM*%
%LPD*%
G01*
G04 APERTURE LIST*
%ADD10C,0.254000*%
%ADD11C,0.200000*%
%ADD12C,0.320000*%
G04 APERTURE END LIST*
D10*
X14855111Y-10816511D02*
X14855111Y-14093111D01*
X7997109Y-14501111D02*
G75*
G03*
X8097111Y-14601111I100001J1D01*
G01*
X8097111Y-9267111D02*
X14448711Y-9267111D01*
X7997111Y-14501111D02*
X7997111Y-9367111D01*
X14601111Y-9419511D02*
X14601111Y-10562511D01*
X8097111Y-9267111D02*
G75*
G03*
X7997111Y-9367111I-1J-99999D01*
G01*
X14501111Y-14601111D02*
X8097111Y-14601111D01*
X14601111Y-10562511D02*
X14855111Y-10816511D01*
X14601111Y-14347111D02*
X14601111Y-14501111D01*
X14855111Y-14093111D02*
X14601111Y-14347111D01*
X14501111Y-14601111D02*
G75*
G03*
X14601111Y-14501111I-1J100001D01*
G01*
X14448711Y-9267111D02*
X14601111Y-9419511D01*
D11*
D12*
X9234111Y-14187111D02*
X9554111Y-14507111D01*
X9554111Y-14187111D02*
X9234111Y-14507111D01*
X9361111Y-9361111D02*
X9681111Y-9681111D01*
X9681111Y-9361111D02*
X9361111Y-9681111D01*
X14441111Y-10885111D02*
X14761111Y-11205111D01*
X14761111Y-10885111D02*
X14441111Y-11205111D01*
X14441111Y-13679111D02*
X14761111Y-13999111D01*
X14761111Y-13679111D02*
X14441111Y-13999111D01*
D11*
X8232030Y-14926334D02*
X8232030Y-14726334D01*
X8232030Y-14726334D02*
X8279649Y-14726334D01*
X8279649Y-14726334D02*
X8308220Y-14735858D01*
X8308220Y-14735858D02*
X8327268Y-14754906D01*
X8327268Y-14754906D02*
X8336792Y-14773953D01*
X8336792Y-14773953D02*
X8346315Y-14812049D01*
X8346315Y-14812049D02*
X8346315Y-14840620D01*
X8346315Y-14840620D02*
X8336792Y-14878715D01*
X8336792Y-14878715D02*
X8327268Y-14897763D01*
X8327268Y-14897763D02*
X8308220Y-14916811D01*
X8308220Y-14916811D02*
X8279649Y-14926334D01*
X8279649Y-14926334D02*
X8232030Y-14926334D01*
X8432030Y-14926334D02*
X8432030Y-14793001D01*
X8432030Y-14831096D02*
X8441554Y-14812049D01*
X8441554Y-14812049D02*
X8451077Y-14802525D01*
X8451077Y-14802525D02*
X8470125Y-14793001D01*
X8470125Y-14793001D02*
X8489173Y-14793001D01*
X8555839Y-14926334D02*
X8555839Y-14793001D01*
X8555839Y-14726334D02*
X8546315Y-14735858D01*
X8546315Y-14735858D02*
X8555839Y-14745382D01*
X8555839Y-14745382D02*
X8565363Y-14735858D01*
X8565363Y-14735858D02*
X8555839Y-14726334D01*
X8555839Y-14726334D02*
X8555839Y-14745382D01*
X8679649Y-14926334D02*
X8660601Y-14916811D01*
X8660601Y-14916811D02*
X8651077Y-14897763D01*
X8651077Y-14897763D02*
X8651077Y-14726334D01*
X8784411Y-14926334D02*
X8765363Y-14916811D01*
X8765363Y-14916811D02*
X8755839Y-14897763D01*
X8755839Y-14897763D02*
X8755839Y-14726334D01*
X9012982Y-14926334D02*
X9012982Y-14726334D01*
X9012982Y-14726334D02*
X9079649Y-14869192D01*
X9079649Y-14869192D02*
X9146315Y-14726334D01*
X9146315Y-14726334D02*
X9146315Y-14926334D01*
X9327268Y-14926334D02*
X9327268Y-14821573D01*
X9327268Y-14821573D02*
X9317744Y-14802525D01*
X9317744Y-14802525D02*
X9298696Y-14793001D01*
X9298696Y-14793001D02*
X9260601Y-14793001D01*
X9260601Y-14793001D02*
X9241554Y-14802525D01*
X9327268Y-14916811D02*
X9308220Y-14926334D01*
X9308220Y-14926334D02*
X9260601Y-14926334D01*
X9260601Y-14926334D02*
X9241554Y-14916811D01*
X9241554Y-14916811D02*
X9232030Y-14897763D01*
X9232030Y-14897763D02*
X9232030Y-14878715D01*
X9232030Y-14878715D02*
X9241554Y-14859668D01*
X9241554Y-14859668D02*
X9260601Y-14850144D01*
X9260601Y-14850144D02*
X9308220Y-14850144D01*
X9308220Y-14850144D02*
X9327268Y-14840620D01*
X9422506Y-14793001D02*
X9422506Y-14993001D01*
X9422506Y-14802525D02*
X9441554Y-14793001D01*
X9441554Y-14793001D02*
X9479649Y-14793001D01*
X9479649Y-14793001D02*
X9498696Y-14802525D01*
X9498696Y-14802525D02*
X9508220Y-14812049D01*
X9508220Y-14812049D02*
X9517744Y-14831096D01*
X9517744Y-14831096D02*
X9517744Y-14888239D01*
X9517744Y-14888239D02*
X9508220Y-14907287D01*
X9508220Y-14907287D02*
X9498696Y-14916811D01*
X9498696Y-14916811D02*
X9479649Y-14926334D01*
X9479649Y-14926334D02*
X9441554Y-14926334D01*
X9441554Y-14926334D02*
X9422506Y-14916811D01*
X9603458Y-14907287D02*
X9612982Y-14916811D01*
X9612982Y-14916811D02*
X9603458Y-14926334D01*
X9603458Y-14926334D02*
X9593935Y-14916811D01*
X9593935Y-14916811D02*
X9603458Y-14907287D01*
X9603458Y-14907287D02*
X9603458Y-14926334D01*
X9603458Y-14802525D02*
X9612982Y-14812049D01*
X9612982Y-14812049D02*
X9603458Y-14821573D01*
X9603458Y-14821573D02*
X9593935Y-14812049D01*
X9593935Y-14812049D02*
X9603458Y-14802525D01*
X9603458Y-14802525D02*
X9603458Y-14821573D01*
X7784411Y-15153811D02*
X7984411Y-15353811D01*
X7984411Y-15153811D02*
X7784411Y-15353811D01*
X8212982Y-15146334D02*
X8336792Y-15146334D01*
X8336792Y-15146334D02*
X8270125Y-15222525D01*
X8270125Y-15222525D02*
X8298696Y-15222525D01*
X8298696Y-15222525D02*
X8317744Y-15232049D01*
X8317744Y-15232049D02*
X8327268Y-15241573D01*
X8327268Y-15241573D02*
X8336792Y-15260620D01*
X8336792Y-15260620D02*
X8336792Y-15308239D01*
X8336792Y-15308239D02*
X8327268Y-15327287D01*
X8327268Y-15327287D02*
X8317744Y-15336811D01*
X8317744Y-15336811D02*
X8298696Y-15346334D01*
X8298696Y-15346334D02*
X8241553Y-15346334D01*
X8241553Y-15346334D02*
X8222506Y-15336811D01*
X8222506Y-15336811D02*
X8212982Y-15327287D01*
X8422506Y-15327287D02*
X8432030Y-15336811D01*
X8432030Y-15336811D02*
X8422506Y-15346334D01*
X8422506Y-15346334D02*
X8412982Y-15336811D01*
X8412982Y-15336811D02*
X8422506Y-15327287D01*
X8422506Y-15327287D02*
X8422506Y-15346334D01*
X8508220Y-15165382D02*
X8517744Y-15155858D01*
X8517744Y-15155858D02*
X8536792Y-15146334D01*
X8536792Y-15146334D02*
X8584411Y-15146334D01*
X8584411Y-15146334D02*
X8603458Y-15155858D01*
X8603458Y-15155858D02*
X8612982Y-15165382D01*
X8612982Y-15165382D02*
X8622506Y-15184430D01*
X8622506Y-15184430D02*
X8622506Y-15203477D01*
X8622506Y-15203477D02*
X8612982Y-15232049D01*
X8612982Y-15232049D02*
X8498696Y-15346334D01*
X8498696Y-15346334D02*
X8622506Y-15346334D01*
X8746315Y-15146334D02*
X8765363Y-15146334D01*
X8765363Y-15146334D02*
X8784411Y-15155858D01*
X8784411Y-15155858D02*
X8793935Y-15165382D01*
X8793935Y-15165382D02*
X8803458Y-15184430D01*
X8803458Y-15184430D02*
X8812982Y-15222525D01*
X8812982Y-15222525D02*
X8812982Y-15270144D01*
X8812982Y-15270144D02*
X8803458Y-15308239D01*
X8803458Y-15308239D02*
X8793935Y-15327287D01*
X8793935Y-15327287D02*
X8784411Y-15336811D01*
X8784411Y-15336811D02*
X8765363Y-15346334D01*
X8765363Y-15346334D02*
X8746315Y-15346334D01*
X8746315Y-15346334D02*
X8727268Y-15336811D01*
X8727268Y-15336811D02*
X8717744Y-15327287D01*
X8717744Y-15327287D02*
X8708220Y-15308239D01*
X8708220Y-15308239D02*
X8698696Y-15270144D01*
X8698696Y-15270144D02*
X8698696Y-15222525D01*
X8698696Y-15222525D02*
X8708220Y-15184430D01*
X8708220Y-15184430D02*
X8717744Y-15165382D01*
X8717744Y-15165382D02*
X8727268Y-15155858D01*
X8727268Y-15155858D02*
X8746315Y-15146334D01*
X8936792Y-15146334D02*
X8955839Y-15146334D01*
X8955839Y-15146334D02*
X8974887Y-15155858D01*
X8974887Y-15155858D02*
X8984411Y-15165382D01*
X8984411Y-15165382D02*
X8993935Y-15184430D01*
X8993935Y-15184430D02*
X9003458Y-15222525D01*
X9003458Y-15222525D02*
X9003458Y-15270144D01*
X9003458Y-15270144D02*
X8993935Y-15308239D01*
X8993935Y-15308239D02*
X8984411Y-15327287D01*
X8984411Y-15327287D02*
X8974887Y-15336811D01*
X8974887Y-15336811D02*
X8955839Y-15346334D01*
X8955839Y-15346334D02*
X8936792Y-15346334D01*
X8936792Y-15346334D02*
X8917744Y-15336811D01*
X8917744Y-15336811D02*
X8908220Y-15327287D01*
X8908220Y-15327287D02*
X8898696Y-15308239D01*
X8898696Y-15308239D02*
X8889173Y-15270144D01*
X8889173Y-15270144D02*
X8889173Y-15222525D01*
X8889173Y-15222525D02*
X8898696Y-15184430D01*
X8898696Y-15184430D02*
X8908220Y-15165382D01*
X8908220Y-15165382D02*
X8917744Y-15155858D01*
X8917744Y-15155858D02*
X8936792Y-15146334D01*
X9089173Y-15346334D02*
X9089173Y-15213001D01*
X9089173Y-15232049D02*
X9098696Y-15222525D01*
X9098696Y-15222525D02*
X9117744Y-15213001D01*
X9117744Y-15213001D02*
X9146316Y-15213001D01*
X9146316Y-15213001D02*
X9165363Y-15222525D01*
X9165363Y-15222525D02*
X9174887Y-15241573D01*
X9174887Y-15241573D02*
X9174887Y-15346334D01*
X9174887Y-15241573D02*
X9184411Y-15222525D01*
X9184411Y-15222525D02*
X9203458Y-15213001D01*
X9203458Y-15213001D02*
X9232030Y-15213001D01*
X9232030Y-15213001D02*
X9251077Y-15222525D01*
X9251077Y-15222525D02*
X9260601Y-15241573D01*
X9260601Y-15241573D02*
X9260601Y-15346334D01*
X9355839Y-15346334D02*
X9355839Y-15213001D01*
X9355839Y-15232049D02*
X9365363Y-15222525D01*
X9365363Y-15222525D02*
X9384411Y-15213001D01*
X9384411Y-15213001D02*
X9412982Y-15213001D01*
X9412982Y-15213001D02*
X9432030Y-15222525D01*
X9432030Y-15222525D02*
X9441554Y-15241573D01*
X9441554Y-15241573D02*
X9441554Y-15346334D01*
X9441554Y-15241573D02*
X9451077Y-15222525D01*
X9451077Y-15222525D02*
X9470125Y-15213001D01*
X9470125Y-15213001D02*
X9498696Y-15213001D01*
X9498696Y-15213001D02*
X9517744Y-15222525D01*
X9517744Y-15222525D02*
X9527268Y-15241573D01*
X9527268Y-15241573D02*
X9527268Y-15346334D01*
X9917744Y-15136811D02*
X9746316Y-15393953D01*
X10174887Y-15146334D02*
X10193935Y-15146334D01*
X10193935Y-15146334D02*
X10212982Y-15155858D01*
X10212982Y-15155858D02*
X10222506Y-15165382D01*
X10222506Y-15165382D02*
X10232030Y-15184430D01*
X10232030Y-15184430D02*
X10241554Y-15222525D01*
X10241554Y-15222525D02*
X10241554Y-15270144D01*
X10241554Y-15270144D02*
X10232030Y-15308239D01*
X10232030Y-15308239D02*
X10222506Y-15327287D01*
X10222506Y-15327287D02*
X10212982Y-15336811D01*
X10212982Y-15336811D02*
X10193935Y-15346334D01*
X10193935Y-15346334D02*
X10174887Y-15346334D01*
X10174887Y-15346334D02*
X10155839Y-15336811D01*
X10155839Y-15336811D02*
X10146316Y-15327287D01*
X10146316Y-15327287D02*
X10136792Y-15308239D01*
X10136792Y-15308239D02*
X10127268Y-15270144D01*
X10127268Y-15270144D02*
X10127268Y-15222525D01*
X10127268Y-15222525D02*
X10136792Y-15184430D01*
X10136792Y-15184430D02*
X10146316Y-15165382D01*
X10146316Y-15165382D02*
X10155839Y-15155858D01*
X10155839Y-15155858D02*
X10174887Y-15146334D01*
X10327268Y-15327287D02*
X10336792Y-15336811D01*
X10336792Y-15336811D02*
X10327268Y-15346334D01*
X10327268Y-15346334D02*
X10317744Y-15336811D01*
X10317744Y-15336811D02*
X10327268Y-15327287D01*
X10327268Y-15327287D02*
X10327268Y-15346334D01*
X10527268Y-15346334D02*
X10412982Y-15346334D01*
X10470125Y-15346334D02*
X10470125Y-15146334D01*
X10470125Y-15146334D02*
X10451078Y-15174906D01*
X10451078Y-15174906D02*
X10432030Y-15193953D01*
X10432030Y-15193953D02*
X10412982Y-15203477D01*
X10603459Y-15165382D02*
X10612982Y-15155858D01*
X10612982Y-15155858D02*
X10632030Y-15146334D01*
X10632030Y-15146334D02*
X10679649Y-15146334D01*
X10679649Y-15146334D02*
X10698697Y-15155858D01*
X10698697Y-15155858D02*
X10708220Y-15165382D01*
X10708220Y-15165382D02*
X10717744Y-15184430D01*
X10717744Y-15184430D02*
X10717744Y-15203477D01*
X10717744Y-15203477D02*
X10708220Y-15232049D01*
X10708220Y-15232049D02*
X10593935Y-15346334D01*
X10593935Y-15346334D02*
X10717744Y-15346334D01*
X10889173Y-15146334D02*
X10851078Y-15146334D01*
X10851078Y-15146334D02*
X10832030Y-15155858D01*
X10832030Y-15155858D02*
X10822506Y-15165382D01*
X10822506Y-15165382D02*
X10803459Y-15193953D01*
X10803459Y-15193953D02*
X10793935Y-15232049D01*
X10793935Y-15232049D02*
X10793935Y-15308239D01*
X10793935Y-15308239D02*
X10803459Y-15327287D01*
X10803459Y-15327287D02*
X10812982Y-15336811D01*
X10812982Y-15336811D02*
X10832030Y-15346334D01*
X10832030Y-15346334D02*
X10870125Y-15346334D01*
X10870125Y-15346334D02*
X10889173Y-15336811D01*
X10889173Y-15336811D02*
X10898697Y-15327287D01*
X10898697Y-15327287D02*
X10908220Y-15308239D01*
X10908220Y-15308239D02*
X10908220Y-15260620D01*
X10908220Y-15260620D02*
X10898697Y-15241573D01*
X10898697Y-15241573D02*
X10889173Y-15232049D01*
X10889173Y-15232049D02*
X10870125Y-15222525D01*
X10870125Y-15222525D02*
X10832030Y-15222525D01*
X10832030Y-15222525D02*
X10812982Y-15232049D01*
X10812982Y-15232049D02*
X10803459Y-15241573D01*
X10803459Y-15241573D02*
X10793935Y-15260620D01*
X11032030Y-15146334D02*
X11051078Y-15146334D01*
X11051078Y-15146334D02*
X11070125Y-15155858D01*
X11070125Y-15155858D02*
X11079649Y-15165382D01*
X11079649Y-15165382D02*
X11089173Y-15184430D01*
X11089173Y-15184430D02*
X11098697Y-15222525D01*
X11098697Y-15222525D02*
X11098697Y-15270144D01*
X11098697Y-15270144D02*
X11089173Y-15308239D01*
X11089173Y-15308239D02*
X11079649Y-15327287D01*
X11079649Y-15327287D02*
X11070125Y-15336811D01*
X11070125Y-15336811D02*
X11051078Y-15346334D01*
X11051078Y-15346334D02*
X11032030Y-15346334D01*
X11032030Y-15346334D02*
X11012982Y-15336811D01*
X11012982Y-15336811D02*
X11003459Y-15327287D01*
X11003459Y-15327287D02*
X10993935Y-15308239D01*
X10993935Y-15308239D02*
X10984411Y-15270144D01*
X10984411Y-15270144D02*
X10984411Y-15222525D01*
X10984411Y-15222525D02*
X10993935Y-15184430D01*
X10993935Y-15184430D02*
X11003459Y-15165382D01*
X11003459Y-15165382D02*
X11012982Y-15155858D01*
X11012982Y-15155858D02*
X11032030Y-15146334D01*
X11174887Y-15146334D02*
X11174887Y-15184430D01*
X11251078Y-15146334D02*
X11251078Y-15184430D01*
X11546316Y-15422525D02*
X11536792Y-15413001D01*
X11536792Y-15413001D02*
X11517744Y-15384430D01*
X11517744Y-15384430D02*
X11508220Y-15365382D01*
X11508220Y-15365382D02*
X11498697Y-15336811D01*
X11498697Y-15336811D02*
X11489173Y-15289192D01*
X11489173Y-15289192D02*
X11489173Y-15251096D01*
X11489173Y-15251096D02*
X11498697Y-15203477D01*
X11498697Y-15203477D02*
X11508220Y-15174906D01*
X11508220Y-15174906D02*
X11517744Y-15155858D01*
X11517744Y-15155858D02*
X11536792Y-15127287D01*
X11536792Y-15127287D02*
X11546316Y-15117763D01*
X11708220Y-15213001D02*
X11708220Y-15346334D01*
X11660601Y-15136811D02*
X11612982Y-15279668D01*
X11612982Y-15279668D02*
X11736792Y-15279668D01*
X11965363Y-15346334D02*
X11965363Y-15146334D01*
X12051078Y-15346334D02*
X12051078Y-15241573D01*
X12051078Y-15241573D02*
X12041554Y-15222525D01*
X12041554Y-15222525D02*
X12022506Y-15213001D01*
X12022506Y-15213001D02*
X11993935Y-15213001D01*
X11993935Y-15213001D02*
X11974887Y-15222525D01*
X11974887Y-15222525D02*
X11965363Y-15232049D01*
X12174887Y-15346334D02*
X12155840Y-15336811D01*
X12155840Y-15336811D02*
X12146316Y-15327287D01*
X12146316Y-15327287D02*
X12136792Y-15308239D01*
X12136792Y-15308239D02*
X12136792Y-15251096D01*
X12136792Y-15251096D02*
X12146316Y-15232049D01*
X12146316Y-15232049D02*
X12155840Y-15222525D01*
X12155840Y-15222525D02*
X12174887Y-15213001D01*
X12174887Y-15213001D02*
X12203459Y-15213001D01*
X12203459Y-15213001D02*
X12222506Y-15222525D01*
X12222506Y-15222525D02*
X12232030Y-15232049D01*
X12232030Y-15232049D02*
X12241554Y-15251096D01*
X12241554Y-15251096D02*
X12241554Y-15308239D01*
X12241554Y-15308239D02*
X12232030Y-15327287D01*
X12232030Y-15327287D02*
X12222506Y-15336811D01*
X12222506Y-15336811D02*
X12203459Y-15346334D01*
X12203459Y-15346334D02*
X12174887Y-15346334D01*
X12355840Y-15346334D02*
X12336792Y-15336811D01*
X12336792Y-15336811D02*
X12327268Y-15317763D01*
X12327268Y-15317763D02*
X12327268Y-15146334D01*
X12508221Y-15336811D02*
X12489173Y-15346334D01*
X12489173Y-15346334D02*
X12451078Y-15346334D01*
X12451078Y-15346334D02*
X12432030Y-15336811D01*
X12432030Y-15336811D02*
X12422506Y-15317763D01*
X12422506Y-15317763D02*
X12422506Y-15241573D01*
X12422506Y-15241573D02*
X12432030Y-15222525D01*
X12432030Y-15222525D02*
X12451078Y-15213001D01*
X12451078Y-15213001D02*
X12489173Y-15213001D01*
X12489173Y-15213001D02*
X12508221Y-15222525D01*
X12508221Y-15222525D02*
X12517744Y-15241573D01*
X12517744Y-15241573D02*
X12517744Y-15260620D01*
X12517744Y-15260620D02*
X12422506Y-15279668D01*
X12593935Y-15336811D02*
X12612982Y-15346334D01*
X12612982Y-15346334D02*
X12651078Y-15346334D01*
X12651078Y-15346334D02*
X12670125Y-15336811D01*
X12670125Y-15336811D02*
X12679649Y-15317763D01*
X12679649Y-15317763D02*
X12679649Y-15308239D01*
X12679649Y-15308239D02*
X12670125Y-15289192D01*
X12670125Y-15289192D02*
X12651078Y-15279668D01*
X12651078Y-15279668D02*
X12622506Y-15279668D01*
X12622506Y-15279668D02*
X12603459Y-15270144D01*
X12603459Y-15270144D02*
X12593935Y-15251096D01*
X12593935Y-15251096D02*
X12593935Y-15241573D01*
X12593935Y-15241573D02*
X12603459Y-15222525D01*
X12603459Y-15222525D02*
X12622506Y-15213001D01*
X12622506Y-15213001D02*
X12651078Y-15213001D01*
X12651078Y-15213001D02*
X12670125Y-15222525D01*
X12746316Y-15422525D02*
X12755840Y-15413001D01*
X12755840Y-15413001D02*
X12774887Y-15384430D01*
X12774887Y-15384430D02*
X12784411Y-15365382D01*
X12784411Y-15365382D02*
X12793935Y-15336811D01*
X12793935Y-15336811D02*
X12803459Y-15289192D01*
X12803459Y-15289192D02*
X12803459Y-15251096D01*
X12803459Y-15251096D02*
X12793935Y-15203477D01*
X12793935Y-15203477D02*
X12784411Y-15174906D01*
X12784411Y-15174906D02*
X12774887Y-15155858D01*
X12774887Y-15155858D02*
X12755840Y-15127287D01*
X12755840Y-15127287D02*
X12746316Y-15117763D01*
X13108221Y-15422525D02*
X13098697Y-15413001D01*
X13098697Y-15413001D02*
X13079649Y-15384430D01*
X13079649Y-15384430D02*
X13070125Y-15365382D01*
X13070125Y-15365382D02*
X13060602Y-15336811D01*
X13060602Y-15336811D02*
X13051078Y-15289192D01*
X13051078Y-15289192D02*
X13051078Y-15251096D01*
X13051078Y-15251096D02*
X13060602Y-15203477D01*
X13060602Y-15203477D02*
X13070125Y-15174906D01*
X13070125Y-15174906D02*
X13079649Y-15155858D01*
X13079649Y-15155858D02*
X13098697Y-15127287D01*
X13098697Y-15127287D02*
X13108221Y-15117763D01*
X13184411Y-15213001D02*
X13184411Y-15346334D01*
X13184411Y-15232049D02*
X13193935Y-15222525D01*
X13193935Y-15222525D02*
X13212982Y-15213001D01*
X13212982Y-15213001D02*
X13241554Y-15213001D01*
X13241554Y-15213001D02*
X13260602Y-15222525D01*
X13260602Y-15222525D02*
X13270125Y-15241573D01*
X13270125Y-15241573D02*
X13270125Y-15346334D01*
X13393935Y-15346334D02*
X13374887Y-15336811D01*
X13374887Y-15336811D02*
X13365363Y-15327287D01*
X13365363Y-15327287D02*
X13355840Y-15308239D01*
X13355840Y-15308239D02*
X13355840Y-15251096D01*
X13355840Y-15251096D02*
X13365363Y-15232049D01*
X13365363Y-15232049D02*
X13374887Y-15222525D01*
X13374887Y-15222525D02*
X13393935Y-15213001D01*
X13393935Y-15213001D02*
X13422506Y-15213001D01*
X13422506Y-15213001D02*
X13441554Y-15222525D01*
X13441554Y-15222525D02*
X13451078Y-15232049D01*
X13451078Y-15232049D02*
X13460602Y-15251096D01*
X13460602Y-15251096D02*
X13460602Y-15308239D01*
X13460602Y-15308239D02*
X13451078Y-15327287D01*
X13451078Y-15327287D02*
X13441554Y-15336811D01*
X13441554Y-15336811D02*
X13422506Y-15346334D01*
X13422506Y-15346334D02*
X13393935Y-15346334D01*
X13517744Y-15213001D02*
X13593935Y-15213001D01*
X13546316Y-15146334D02*
X13546316Y-15317763D01*
X13546316Y-15317763D02*
X13555840Y-15336811D01*
X13555840Y-15336811D02*
X13574887Y-15346334D01*
X13574887Y-15346334D02*
X13593935Y-15346334D01*
X13812983Y-15213001D02*
X13812983Y-15413001D01*
X13812983Y-15222525D02*
X13832030Y-15213001D01*
X13832030Y-15213001D02*
X13870125Y-15213001D01*
X13870125Y-15213001D02*
X13889173Y-15222525D01*
X13889173Y-15222525D02*
X13898697Y-15232049D01*
X13898697Y-15232049D02*
X13908221Y-15251096D01*
X13908221Y-15251096D02*
X13908221Y-15308239D01*
X13908221Y-15308239D02*
X13898697Y-15327287D01*
X13898697Y-15327287D02*
X13889173Y-15336811D01*
X13889173Y-15336811D02*
X13870125Y-15346334D01*
X13870125Y-15346334D02*
X13832030Y-15346334D01*
X13832030Y-15346334D02*
X13812983Y-15336811D01*
X14022506Y-15346334D02*
X14003459Y-15336811D01*
X14003459Y-15336811D02*
X13993935Y-15317763D01*
X13993935Y-15317763D02*
X13993935Y-15146334D01*
X14184411Y-15346334D02*
X14184411Y-15241573D01*
X14184411Y-15241573D02*
X14174887Y-15222525D01*
X14174887Y-15222525D02*
X14155840Y-15213001D01*
X14155840Y-15213001D02*
X14117744Y-15213001D01*
X14117744Y-15213001D02*
X14098697Y-15222525D01*
X14184411Y-15336811D02*
X14165364Y-15346334D01*
X14165364Y-15346334D02*
X14117744Y-15346334D01*
X14117744Y-15346334D02*
X14098697Y-15336811D01*
X14098697Y-15336811D02*
X14089173Y-15317763D01*
X14089173Y-15317763D02*
X14089173Y-15298715D01*
X14089173Y-15298715D02*
X14098697Y-15279668D01*
X14098697Y-15279668D02*
X14117744Y-15270144D01*
X14117744Y-15270144D02*
X14165364Y-15270144D01*
X14165364Y-15270144D02*
X14184411Y-15260620D01*
X14251078Y-15213001D02*
X14327268Y-15213001D01*
X14279649Y-15146334D02*
X14279649Y-15317763D01*
X14279649Y-15317763D02*
X14289173Y-15336811D01*
X14289173Y-15336811D02*
X14308221Y-15346334D01*
X14308221Y-15346334D02*
X14327268Y-15346334D01*
X14470125Y-15336811D02*
X14451078Y-15346334D01*
X14451078Y-15346334D02*
X14412983Y-15346334D01*
X14412983Y-15346334D02*
X14393935Y-15336811D01*
X14393935Y-15336811D02*
X14384411Y-15317763D01*
X14384411Y-15317763D02*
X14384411Y-15241573D01*
X14384411Y-15241573D02*
X14393935Y-15222525D01*
X14393935Y-15222525D02*
X14412983Y-15213001D01*
X14412983Y-15213001D02*
X14451078Y-15213001D01*
X14451078Y-15213001D02*
X14470125Y-15222525D01*
X14470125Y-15222525D02*
X14479649Y-15241573D01*
X14479649Y-15241573D02*
X14479649Y-15260620D01*
X14479649Y-15260620D02*
X14384411Y-15279668D01*
X14651078Y-15346334D02*
X14651078Y-15146334D01*
X14651078Y-15336811D02*
X14632030Y-15346334D01*
X14632030Y-15346334D02*
X14593935Y-15346334D01*
X14593935Y-15346334D02*
X14574887Y-15336811D01*
X14574887Y-15336811D02*
X14565364Y-15327287D01*
X14565364Y-15327287D02*
X14555840Y-15308239D01*
X14555840Y-15308239D02*
X14555840Y-15251096D01*
X14555840Y-15251096D02*
X14565364Y-15232049D01*
X14565364Y-15232049D02*
X14574887Y-15222525D01*
X14574887Y-15222525D02*
X14593935Y-15213001D01*
X14593935Y-15213001D02*
X14632030Y-15213001D01*
X14632030Y-15213001D02*
X14651078Y-15222525D01*
X14727268Y-15422525D02*
X14736792Y-15413001D01*
X14736792Y-15413001D02*
X14755840Y-15384430D01*
X14755840Y-15384430D02*
X14765364Y-15365382D01*
X14765364Y-15365382D02*
X14774887Y-15336811D01*
X14774887Y-15336811D02*
X14784411Y-15289192D01*
X14784411Y-15289192D02*
X14784411Y-15251096D01*
X14784411Y-15251096D02*
X14774887Y-15203477D01*
X14774887Y-15203477D02*
X14765364Y-15174906D01*
X14765364Y-15174906D02*
X14755840Y-15155858D01*
X14755840Y-15155858D02*
X14736792Y-15127287D01*
X14736792Y-15127287D02*
X14727268Y-15117763D01*
M02*
