%TF.GenerationSoftware,KiCad,Pcbnew,7.0.1*%
%TF.CreationDate,2023-08-20T21:18:48+10:00*%
%TF.ProjectId,UNO-128DA28,554e4f2d-3132-4384-9441-32382e6b6963,1.0*%
%TF.SameCoordinates,Original*%
%TF.FileFunction,Soldermask,Bot*%
%TF.FilePolarity,Negative*%
%FSLAX46Y46*%
G04 Gerber Fmt 4.6, Leading zero omitted, Abs format (unit mm)*
G04 Created by KiCad (PCBNEW 7.0.1) date 2023-08-20 21:18:48*
%MOMM*%
%LPD*%
G01*
G04 APERTURE LIST*
G04 Aperture macros list*
%AMRoundRect*
0 Rectangle with rounded corners*
0 $1 Rounding radius*
0 $2 $3 $4 $5 $6 $7 $8 $9 X,Y pos of 4 corners*
0 Add a 4 corners polygon primitive as box body*
4,1,4,$2,$3,$4,$5,$6,$7,$8,$9,$2,$3,0*
0 Add four circle primitives for the rounded corners*
1,1,$1+$1,$2,$3*
1,1,$1+$1,$4,$5*
1,1,$1+$1,$6,$7*
1,1,$1+$1,$8,$9*
0 Add four rect primitives between the rounded corners*
20,1,$1+$1,$2,$3,$4,$5,0*
20,1,$1+$1,$4,$5,$6,$7,0*
20,1,$1+$1,$6,$7,$8,$9,0*
20,1,$1+$1,$8,$9,$2,$3,0*%
G04 Aperture macros list end*
%ADD10R,1.600000X1.600000*%
%ADD11C,1.600000*%
%ADD12O,1.600000X1.600000*%
%ADD13R,1.700000X1.700000*%
%ADD14O,1.700000X1.700000*%
%ADD15C,3.200000*%
%ADD16C,2.000000*%
%ADD17C,4.000000*%
%ADD18R,3.500000X3.500000*%
%ADD19RoundRect,0.750000X-0.750000X-1.000000X0.750000X-1.000000X0.750000X1.000000X-0.750000X1.000000X0*%
%ADD20RoundRect,0.875000X-0.875000X-0.875000X0.875000X-0.875000X0.875000X0.875000X-0.875000X0.875000X0*%
%ADD21R,2.200000X2.200000*%
%ADD22O,2.200000X2.200000*%
G04 APERTURE END LIST*
D10*
%TO.C,C10*%
X99822000Y-126935113D03*
D11*
X99822000Y-124435113D03*
%TD*%
D10*
%TO.C,U3*%
X110490000Y-134112000D03*
D12*
X113030000Y-134112000D03*
X115570000Y-134112000D03*
X118110000Y-134112000D03*
X120650000Y-134112000D03*
X123190000Y-134112000D03*
X125730000Y-134112000D03*
X128270000Y-134112000D03*
X130810000Y-134112000D03*
X133350000Y-134112000D03*
X135890000Y-134112000D03*
X138430000Y-134112000D03*
X140970000Y-134112000D03*
X143510000Y-134112000D03*
X143510000Y-126492000D03*
X140970000Y-126492000D03*
X138430000Y-126492000D03*
X135890000Y-126492000D03*
X133350000Y-126492000D03*
X130810000Y-126492000D03*
X128270000Y-126492000D03*
X125730000Y-126492000D03*
X123190000Y-126492000D03*
X120650000Y-126492000D03*
X118110000Y-126492000D03*
X115570000Y-126492000D03*
X113030000Y-126492000D03*
X110490000Y-126492000D03*
%TD*%
D13*
%TO.C,J6*%
X108500000Y-116490000D03*
D14*
X105960000Y-116490000D03*
X103420000Y-116490000D03*
X100880000Y-116490000D03*
%TD*%
D15*
%TO.C,@HOLE3*%
X93941107Y-143471107D03*
%TD*%
D16*
%TO.C,SW1*%
X81840000Y-94270000D03*
X88340000Y-94270000D03*
X81840000Y-98770000D03*
X88340000Y-98770000D03*
%TD*%
D10*
%TO.C,J1*%
X89376000Y-110196000D03*
D11*
X89376000Y-107696000D03*
X87376000Y-107696000D03*
X87376000Y-110196000D03*
D17*
X84516000Y-114946000D03*
X84516000Y-102946000D03*
%TD*%
D13*
%TO.C,AD0*%
X130707607Y-143534607D03*
D14*
X133247607Y-143534607D03*
X135787607Y-143534607D03*
X138327607Y-143534607D03*
X140867607Y-143534607D03*
X143407607Y-143534607D03*
%TD*%
D13*
%TO.C,J8*%
X133350000Y-123444000D03*
D14*
X133350000Y-120904000D03*
%TD*%
D18*
%TO.C,J2*%
X91241607Y-137692607D03*
D19*
X85241607Y-137692607D03*
D20*
X88241607Y-142392607D03*
%TD*%
D21*
%TO.C,D5*%
X94996000Y-129794000D03*
D22*
X94996000Y-139954000D03*
%TD*%
D15*
%TO.C,@HOLE1*%
X146011107Y-138391107D03*
%TD*%
%TO.C,@HOLE2*%
X95211107Y-95211107D03*
%TD*%
D13*
%TO.C,POWER0*%
X107845000Y-143525000D03*
D14*
X110385000Y-143525000D03*
X112925000Y-143525000D03*
X115465000Y-143525000D03*
X118005000Y-143525000D03*
X120545000Y-143525000D03*
X123085000Y-143525000D03*
X125625000Y-143525000D03*
%TD*%
D15*
%TO.C,@HOLE0*%
X146011107Y-110451107D03*
%TD*%
D13*
%TO.C,IOH0*%
X121570000Y-95280000D03*
D14*
X119030000Y-95280000D03*
X116490000Y-95280000D03*
X113950000Y-95280000D03*
X111410000Y-95280000D03*
X108870000Y-95280000D03*
X106330000Y-95280000D03*
X103790000Y-95280000D03*
X101250000Y-95280000D03*
X98710000Y-95280000D03*
%TD*%
D10*
%TO.C,C9*%
X99822000Y-130048000D03*
D11*
X99822000Y-132548000D03*
%TD*%
D13*
%TO.C,ICSP0*%
X143660000Y-115590000D03*
D14*
X146200000Y-115590000D03*
X143660000Y-118130000D03*
X146200000Y-118130000D03*
X143660000Y-120670000D03*
X146200000Y-120670000D03*
%TD*%
D13*
%TO.C,IOL0*%
X143407607Y-95274607D03*
D14*
X140867607Y-95274607D03*
X138327607Y-95274607D03*
X135787607Y-95274607D03*
X133247607Y-95274607D03*
X130707607Y-95274607D03*
X128167607Y-95274607D03*
X125627607Y-95274607D03*
%TD*%
M02*
