M48
; DRILL file {KiCad 7.0.1} date Sun Aug 20 21:18:52 2023
; FORMAT={-:-/ absolute / metric / decimal}
; #@! TF.CreationDate,2023-08-20T21:18:52+10:00
; #@! TF.GenerationSoftware,Kicad,Pcbnew,7.0.1
; #@! TF.FileFunction,Plated,1,2,PTH
FMAT,2
METRIC
; #@! TA.AperFunction,Plated,PTH,ViaDrill
T1C0.400
; #@! TA.AperFunction,Plated,PTH,ViaDrill
T2C0.610
; #@! TA.AperFunction,Plated,PTH,ComponentDrill
T3C0.800
; #@! TA.AperFunction,Plated,PTH,ComponentDrill
T4C0.950
; #@! TA.AperFunction,Plated,PTH,ComponentDrill
T5C1.000
; #@! TA.AperFunction,Plated,PTH,ComponentDrill
T6C1.100
; #@! TA.AperFunction,Plated,PTH,ComponentDrill
T7C2.300
%
G90
G05
T1
X81.28Y-129.032
X83.312Y-125.984
X83.312Y-132.08
X85.598Y-129.032
X87.63Y-125.984
X87.63Y-132.08
X87.884Y-119.38
X91.694Y-116.84
X94.14Y-111.47
X94.488Y-121.666
X96.774Y-111.506
X97.536Y-120.65
X97.79Y-104.648
X98.552Y-110.998
X99.822Y-137.541
X100.33Y-135.636
X100.86Y-106.43
X101.089Y-107.699
X101.346Y-138.176
X102.362Y-139.192
X102.362Y-141.224
X102.616Y-137.541
X103.378Y-102.362
X103.632Y-112.522
X103.886Y-108.458
X104.14Y-120.142
X104.394Y-111.64
X104.394Y-113.538
X104.902Y-141.224
X105.26Y-100.33
X106.68Y-108.712
X107.696Y-140.716
X108.966Y-119.126
X109.474Y-103.378
X111.252Y-108.204
X111.252Y-113.538
X111.506Y-140.97
X111.73Y-111.64
X111.76Y-114.808
X114.046Y-140.97
X115.824Y-111.506
X116.57Y-107.43
X117.094Y-108.966
X117.983Y-112.903
X118.52Y-98.298
X118.872Y-110.744
X120.65Y-98.806
X122.0Y-98.81
X125.07Y-108.44
X125.222Y-124.46
X125.984Y-119.634
X126.35Y-107.7
X126.88Y-139.69
X127.0Y-100.076
X127.254Y-106.934
X130.41Y-117.94
X131.92Y-98.26
X135.636Y-109.982
X135.788Y-98.044
X136.652Y-99.08
X139.446Y-115.57
T2
X95.25Y-99.06
X98.044Y-109.474
X100.584Y-98.552
X102.108Y-133.858
X102.362Y-128.27
X104.394Y-123.19
X107.696Y-99.06
X109.728Y-106.426
X110.49Y-130.302
X111.76Y-117.348
X113.792Y-109.728
X114.046Y-131.572
X118.618Y-138.938
X121.92Y-109.474
X123.596Y-95.275
X134.54Y-105.86
X136.906Y-121.92
X137.65Y-130.9
X139.74Y-105.23
X143.17Y-129.15
X145.034Y-97.536
X145.034Y-104.394
T3
X99.822Y-124.435
X99.822Y-126.935
X99.822Y-130.048
X99.822Y-132.548
X110.49Y-126.492
X110.49Y-134.112
X113.03Y-126.492
X113.03Y-134.112
X115.57Y-126.492
X115.57Y-134.112
X118.11Y-126.492
X118.11Y-134.112
X120.65Y-126.492
X120.65Y-134.112
X123.19Y-126.492
X123.19Y-134.112
X125.73Y-126.492
X125.73Y-134.112
X128.27Y-126.492
X128.27Y-134.112
X130.81Y-126.492
X130.81Y-134.112
X133.35Y-126.492
X133.35Y-134.112
X135.89Y-126.492
X135.89Y-134.112
X138.43Y-126.492
X138.43Y-134.112
X140.97Y-126.492
X140.97Y-134.112
X143.51Y-126.492
X143.51Y-134.112
T4
X87.376Y-107.696
X87.376Y-110.196
X89.376Y-107.696
X89.376Y-110.196
T5
X98.71Y-95.28
X100.88Y-116.49
X101.25Y-95.28
X103.42Y-116.49
X103.79Y-95.28
X105.96Y-116.49
X106.33Y-95.28
X107.845Y-143.525
X108.5Y-116.49
X108.87Y-95.28
X110.385Y-143.525
X111.41Y-95.28
X112.925Y-143.525
X113.95Y-95.28
X115.465Y-143.525
X116.49Y-95.28
X118.005Y-143.525
X119.03Y-95.28
X120.545Y-143.525
X121.57Y-95.28
X123.085Y-143.525
X125.625Y-143.525
X125.628Y-95.275
X128.168Y-95.275
X130.708Y-95.275
X130.708Y-143.535
X133.248Y-95.275
X133.248Y-143.535
X133.35Y-120.904
X133.35Y-123.444
X135.788Y-95.275
X135.788Y-143.535
X138.328Y-95.275
X138.328Y-143.535
X140.868Y-95.275
X140.868Y-143.535
X143.408Y-95.275
X143.408Y-143.535
X143.66Y-115.59
X143.66Y-118.13
X143.66Y-120.67
X146.2Y-115.59
X146.2Y-118.13
X146.2Y-120.67
T6
X81.84Y-94.27
X81.84Y-98.77
X88.34Y-94.27
X88.34Y-98.77
X94.996Y-129.794
X94.996Y-139.954
T7
X84.516Y-102.946
X84.516Y-114.946
T5
G00X85.242Y-136.693
M15
G01X85.242Y-138.693
M16
G05
G00X87.242Y-142.393
M15
G01X89.242Y-142.393
M16
G05
G00X91.242Y-136.693
M15
G01X91.242Y-138.693
M16
G05
T0
M30
